<svg id="Layer_1" data-name="Layer 1" xmlns="http://www.w3.org/2000/svg" viewBox="0 0 1597.36 1597.36"><defs><style>.cls-1{fill:none;stroke:#288b92;stroke-linecap:round;stroke-linejoin:round;stroke-width:5.35px;}</style></defs><title>Artboard 3</title><path class="cls-1" d="M1149.59,348.22H1204v36.27s37.4,78.2,47.6,122.4,1.13,124.67-51,174.53c0,0,44.2,21.54,15.87,21.54s-2.27,20.4-2.27,20.4,27.2,34-11.34,34c0,0-6.8,188.13,23.8,222.14s28.33,34,28.33,34l-17,20.4,2.27,37.4H1255s18.13,36.27,52.14,57.8,49.87,44.2,0,64.6h20.4v39.67s-14.73,29.47,62.33,29.47v70.27H1149.58"/><path class="cls-1" d="M1149.59,348.22h-54.4v36.27s-37.4,78.2-47.6,122.4-1.13,124.67,51,174.53c0,0-44.2,21.54-15.87,21.54s2.27,20.4,2.27,20.4-27.2,34,11.34,34c0,0,6.8,188.13-23.8,222.14s-28.33,34-28.33,34l17,20.4-2.27,37.4h-14.73s-18.13,36.27-52.14,57.8-49.87,44.2,0,64.6h-20.4v39.67s14.73,29.47-62.33,29.47v70.27H1149.6"/><line class="cls-1" x1="1098.59" y1="681.41" x2="1200.59" y2="681.41"/><line class="cls-1" x1="1095.92" y1="708.46" x2="1203.26" y2="708.46"/><line class="cls-1" x1="1096.33" y1="757.35" x2="1202.86" y2="757.35"/><line class="cls-1" x1="1058.92" y1="1071.28" x2="1240.26" y2="1071.28"/><line class="cls-1" x1="1058.92" y1="1033.88" x2="1240.26" y2="1033.88"/><line class="cls-1" x1="992.06" y1="1193.68" x2="1307.13" y2="1193.68"/><line class="cls-1" x1="971.66" y1="1233.34" x2="1326.66" y2="1233.34"/><path class="cls-1" d="M1069.24,443.48s40.68,64.53,37.28,87.19l-18.13,12.47s-10.84-46.55-29.79-72"/><path class="cls-1" d="M465.06,631.55c-12.63,1.21-37,1.52-56.67-13.6-25.6-19.65-42.6-44.34-44.2-74.8-3.35-64.06,18.67-70,29.47-157.53,6.14-49.84,17.05-83.88,38.54-104.26,17-16.13,39.38-19.47,53.27-21.54,22.15-3.3,35.93.37,91.8,13.6,71.46,16.91,72.32,16.44,77.06,20.4C685.59,319.9,663.47,353,691.73,414c23.29,50.23,48,48.68,60.06,96.34,7.32,28.94,8.85,71.52-11.34,83.87-10.67,6.53-17.48-1.46-48.73-3.4-13.83-.86-49.34-3.05-82.73,13.6-22.38,11.16-19.41,18.61-40.8,27.2-6.54,2.62-46.84,18-69.13-1.13-5.64-4.83-13.77-15-14.73-49.87-1.17-42.33,9.94-59.44,17-97.47,4.91-26.46,18.05-97.33-19.26-146.2-3.32-4.34-20.61-32.87-34-29.47-5,1.27-8.28,6.63-14.65,24.7-6.07,17.22-10.59,34.89-14.82,52.63-7.33,36.45-12.49,75.7-11.38,114.1.55,19.3,13.55,5.73,23.86,11.43,6.2,3.43,4.91,12,7.94,23.8a73.6,73.6,0,0,0,23.8,37.4c14.68,11.94,32.17,13.62,41.93,13.6"/><path class="cls-1" d="M606.72,633.81c13.22-42.25,19.83-63.36,36.27-72.53,20.51-11.44,52-2.32,71.4,13.6,17.44,14.32,22.89,32.36,35.13,131.46,11.09,89.82,12.22,120.34,12.47,142.8.67,60.66.69,91.39-14.73,111.07-27.33,34.88-78.78,37.06-113.33,38.54-78.77,3.34-98.73-32.92-163.2-19.26-10.21,2.16-27.33,6.8-40.8-2.27-10.91-7.34-14.76-20.68-18.13-54.4-6.41-64-10.66-106.39,10.2-116.73,9.58-4.75,19.63-.35,20.4,0,15.42,7,11.37,33.12,17,82.73,3.28,28.9,7.13,62.86,14.73,63.46,6.92.55,20.63-26.2,19.26-54.4-1.47-30.62-19.78-43.66-18.13-80.47.76-16.89,4.93-21.13,6.8-22.67,9.28-7.63,25.6.45,62.33,18.13,66.82,32.17,83.21,39.85,81.6,46.46-1,4.25-8.91,5.61-15.87,6.8-24.24,4.16-54.18-7.76-55.53-21.54-1.54-15.68,33.8-35.4,65.74-37.4,25.72-1.61,53.54,8,53.27,14.73-.21,5.45-19,12.77-34,7.94-19.57-6.31-26.23-31.26-35.13-64.6-14.34-53.69-7.4-93-5.66-102C600.86,652.57,603.18,645.11,606.72,633.81Z"/><path class="cls-1" d="M436.72,840.08c-3.85-5.25-19.68-25.59-47.6-30.6-19.53-3.51-35,2.27-40.8,4.53-8,3.1-19,7.39-19.26,13.6-.3,7.42,15.08,10.6,36.27,22.67,34.38,19.57,41.57,38.31,53.27,35.13C425.69,883.48,433.44,873.75,436.72,840.08Z"/><path class="cls-1" d="M777.86,791.35a389.49,389.49,0,0,1,19.26,102c2.87,55.07-8.33,69.19,0,112.2,4.81,24.84,14.93,77.08,55.53,105.4,30.7,21.41,53.19,11.27,77.06,39.67,3.75,4.46,22.14,26.33,19.26,54.4-.81,8-1.81,17.74-9.07,24.94-17.12,17-47.74-1.62-58.93,12.47-7.41,9.34,4.09,19.92,0,44.2-2.68,15.92-10.94,31.09-20.4,39.67-20.08,18.23-51.51,12.15-80.47,7.94-68.49-10-138.29-6.41-207.4-10.2-40.13-2.2-60.2-3.3-87.27-3.4-161.66-.58-240.34,34.79-269.73-4.53-.89-1.19-12.06-16.5-6.8-27.2,7.51-15.29,40.91-5.68,96.34-11.34,40.26-4.1,76.21-7.77,95.2-32.86,8.56-11.31,10.22-22.39,12.47-65.74,2.92-56.23,3.06-96.36,3.4-111.07.73-31.38,5.48-77.11,24.94-133.73"/><path class="cls-1" d="M467.32,593c-14.89,21.26-41.18,65.46-44.2,125.8a231.39,231.39,0,0,0,5.66,63.46"/><path class="cls-1" d="M490,666.68a210.35,210.35,0,0,0-13.6,64.6,208,208,0,0,0,1.13,34"/><path class="cls-1" d="M494.52,1005.55c-.69,20.1-.87,47.26,1.13,79.34,2.85,45.56,5.14,82,18.13,125.8,14.8,49.89,34.14,77.76,27.2,82.73-5.68,4.07-24.14-10.66-35.13-23.8-26.85-32.1-24.16-72.65-22.67-86.13"/><path class="cls-1" d="M573.86,1081.48c-.39,14.44-1.49,111.17,73.66,174.53,35.45,29.89,73.47,40.21,95.2,44.2"/><path class="cls-1" d="M714.39,1016.88c-1.09,22-1.75,92.61,47.6,154.13a215.14,215.14,0,0,0,63.46,53.27"/><path class="cls-1" d="M366.46,951.14c21.32-36.49,12.38-72.58-11.34-180.2-23.75-107.79-31.84-149.08-41.93-148.47-7.39.45-4.91,22.72-27.2,71.4-5.84,12.76-11.08,22.29-12.47,37.4-1.82,19.72,4.19,35,6.8,41.93,12.57,33.68,17.17,66.24,24.94,121.27,8.73,61.85.62,89.21,13.6,94.07C331.59,993.31,354,972.44,366.46,951.14Z"/></svg>