<svg id="Layer_1" data-name="Layer 1" xmlns="http://www.w3.org/2000/svg" viewBox="0 0 1601.42 1601.42"><defs><style>.cls-1{fill:none;stroke:#288b92;stroke-linecap:round;stroke-linejoin:round;stroke-width:5.79px;}</style></defs><title>Artboard 4</title><path class="cls-1" d="M283.15,928.06c14.14-13.1,27.76-25.66,41.39-39.28,9.43-11.52,18.86-21,28.29-33.53,10.47-14.67,17.81-29.33,24.1-46.1,3.15-8.38,5.24-21-4.19-24.1-17.81-7.34-34.57,6.28-49.24,16.76l-15.71,9.43c-19.9,11.52-39.81,21-61.81,23a121.22,121.22,0,0,1-38.76-3.15c-7.34-2.09-13.62-5.24-21-8.38-15.71-8.38-27.24-21-38.76-33.52C136,764.11,159,743.15,176.83,728.48c10.47-10.47,21-19.9,31.43-31.43,2.09-2.09,3.15-6.28,5.24-8.38,18.86-17.81,30.38-38.76,44-60.77A194.52,194.52,0,0,0,268,607c2.09-8.38,2.09-17.81,5.24-26.19,5.24-12.58,16.76-21,27.24-30.38a32,32,0,0,0,7.34-5.24c16.76-12.58,35.62-14.67,54.47-21,14.67-4.19,22-19.9,30.38-33.52,8.38-14.67,14.67-28.29,24.1-42.95,1.05-2.09,3.15-3.15,5.24-4.19,10.47-5.24,18.86,4.19,21,13.62,3.15,18.86,4.19,37.72,12.58,55.53,2.09,4.19,8.38,5.24,12.58,7.34,26.19,7.34,53.43,13.62,76.35,28.37"/><path class="cls-1" d="M445.48,463.14c39.68,1.72,77.54,15.92,112.59,33.78C568,502,577.83,507.4,587.53,513"/><path class="cls-1" d="M298.62,554.25c-5.51-14.34-13.89-28-19.13-42.63a22,22,0,0,0-4.19-6.28v-3.15c27.24-14.67,55.53-22,84.86-30.38,15.71-4.19,32.48-7.34,47.79-7.8"/><path class="cls-1" d="M283.15,928.06S257,954.25,247.53,970s-13.62,47.15,0,58.67,28.29,7.34,27.24,30.38,0,28.29,0,28.29-70.2,19.9-27.24,25.14,27.24,5.24,27.24,5.24-3.15,23,0,37.72,19.9,16.76,21,32.48-7.34,17.81-37.72,19.9-47.15,23-24.1,24.1,25.14,0,25.14,0,16.76,33.52-70.2,33.52v59.71h219"/><path class="cls-1" d="M548.22,1039c-4.72,3.78-6.81,9-7.87,15.31-1.05,11.52,1.05,22,1.05,32.48a2.25,2.25,0,0,0,2.09,2.09c13.62,4.19,27.24,4.19,37.72,14.67,4.19,5.24-3.15,7.34-7.34,8.38-12.58,2.09-24.1,1.05-35.62,5.24,2.08,0,10.26-4.85,0,0h2.09c5.24,14.67,2.09,30.38-1.05,45.05-9.43,8.38-22,17.81-19.9,32.48,2.09,8.38,11.52,11.52,19.9,12.58,15.71,1.05,31.43,0,46.1,8.38a16.25,16.25,0,0,1,6.28,8.38c1.05,3.15-1.05,6.28-4.19,7.34-10.47,3.15-21,1.05-31.43,1.05-2.09,6.28,1.05,14.67,5.24,18.86,17.81,15.71,42.95,13.62,65,13.62,2.09,5.24,1.05,10.47,1.05,15.71-2.09,14.67,0,28.29,0,42.95-28.43,1.24-.21-3.66,0,0-73.33,2.09-146.67,0-219.49,1.57"/><path class="cls-1" d="M513.64,612.72a491,491,0,0,0-15.71,92.19s-1.65,23.84,8.38,56.57c1.94,6.33,5.11,15.3,11.52,16.76,7.16,1.63,12.28-7.49,21-6.28,6.84.95,10.84,7.61,13.62,11.52,12,16.89,31.25,24.38,44,29.33,5,1.95,38.64,14.42,69.14-3.15a72.16,72.16,0,0,0,24.1-23"/><path class="cls-1" d="M655.07,465c-12.68,20.07-33.29,52.69-66,71.24-34.12,19.35-54.45,8.13-76.48,32.48-4.66,5.15-13.65,15.09-15.71,29.33-6.23,42.9,56.62,81,68.1,88,37.82,23,72.73,26.23,105.81,29.33,45,4.22,102,9.57,129.91-25.14,8.45-10.51,11.11-20.8,14.67-34.57,12.07-46.76-3.93-87.14-12.58-109C791,517,776.89,499.8,749.37,466c-16.89-20.71-48.35-59.3-63.9-52.38-4.59,2-4.22,6.47-15.71,27.24C669.73,440.9,665.78,448,655.07,465Z"/><path class="cls-1" d="M541.92,577.1A244.59,244.59,0,0,0,610,560.33c10-4.07,44.24-18.77,78.57-51.34a262.06,262.06,0,0,0,24.1-26.19"/><path class="cls-1" d="M544,599.1a615.3,615.3,0,0,0,101.62-11.52c57.48-11.46,81.2-24.87,95.34-34.57a189.54,189.54,0,0,0,19.9-15.71"/><path class="cls-1" d="M534.59,620a367.07,367.07,0,0,0,222.1-5.23c12.23-4.2,22.24-8.37,29.33-11.52"/><path class="cls-1" d="M543,644.15a348.06,348.06,0,0,0,237.81,24.1"/><path class="cls-1" d="M714.79,729a247.15,247.15,0,0,1,42.95,23c3.42,2.3,49.6,34,78.57,84.86,32,56.14,29.12,111.32,25.14,188.57-2.63,51.29-10.93,110.53-21,182.29-8.79,62.9-14.27,92.14,4.19,113.15,19.79,22.5,53.88,20.54,98.48,18.86,74.68-2.82,149.47-1.55,224.2-3.15,75.09-1.6,150.32-11.61,225.25-6.28,20.19,1.44,59,4.8,63.9-8.38,5.33-14.42-32.9-40.73-37.72-44-46.52-31.57-93.2-33.38-217.91-42.95-81.46-6.25-101.09-8.52-117.33-26.19-22.62-24.6-15-53.29-16.76-114.2-1.88-65-4.66-161.24-56.58-235.72-35.6-51.08-86-80.05-116.29-97.43a436.89,436.89,0,0,0-96.38-40.86"/><path class="cls-1" d="M915.94,893.48c19.9,34.57,21.19,77.37,15,114.08-6.33,37.56-32.09,68.22-42.29,104.81-16.38,58.71-21.85,140.38,36.73,177.13,10.56,6.62,31.37,16.9,93.24,13.62,71.16-3.77,84.64-19.55,151.91-22,43.7-1.59,68.41,4,69.14,0,1.08-5.87-50.43-31.84-111.05-30.38-53.74,1.29-75.76,23.2-109,7.34-1.41-.68-31.4-15.55-39.81-46.1-8.36-30.36,12-49.27,26.19-93.24,17.28-53.57,11.17-100.27,8.38-121.52-2.92-22.34-11.36-81.16-54.47-134.1-27.7-34-60-53.61-107.9-82.76-20.59-12.52-38.45-21.89-51.34-28.29"/><path class="cls-1" d="M626.78,907.1c5.66-20.65,25.36-82.26,79.63-106.86,10.94-5,34.31-15.56,52.38-5.24,21,12,24.14,46.13,21,68.1-2.2,15.18-9.87,41.54-92.19,111.05-45,38-67.45,57-81.72,60.77-79.4,21.19-174.41-50.58-190.67-62.86C387.6,951.24,371,931.78,336.59,926c-37.14-6.28-65.44,8.37-70.2-1.05-4.4-8.71,14.33-32.07,38.76-40.86,21.47-7.72,40-1.53,71.24,8.38,79.61,25.25,110.21,32.91,134.1,37.72,41.87,8.42,66.69,8.77,90.1-3.15A94.52,94.52,0,0,0,626.78,907.1Z"/><path class="cls-1" d="M841.55,1056.91c-19.12,31.25-9.89,46-26.19,62.86-20.52,21.23-55.28,18.74-97.43,15.71-56.18-4-76.44-19.55-115.24-7.34-8.67,2.73-33,10.39-34.57,24.1-1.92,17,32.33,33.6,58.67,46.1a463.25,463.25,0,0,0,131,39.81c72.94,10.44,109.41,15.66,140.38-3.15,40.63-24.67,59.14-73.16,59.71-113.15.71-50-26.33-110.24-58.67-112.1C871.36,1008.18,845.74,1050.06,841.55,1056.91Z"/><path class="cls-1" d="M724.22,956.35c11.22,27.19,23.08,29.31,34.57,50.28,21.81,39.78,8.37,85.46,6.28,92.19-11.42,36.87-37.08,53.73-33.52,57.62,4.11,4.5,42.59-13.6,66-49.24,25.52-38.87,21.26-80.55,19.9-92.19-1.45-12.39-6.25-53.49-38.76-81.72-19.12-16.6-49.62-30.33-59.71-21C709.64,921,720.35,947,724.22,956.35Z"/><path class="cls-1" d="M323,848.44a78.15,78.15,0,0,1,27.24-15.71c12.93-4.44,36.67-12.58,49.24,0,8,8,10.47,23.47,4.19,32.48-5.09,7.3-13.42,6.82-41.91,9.43-42.39,3.88-53.69,7.65-56.58,2.09C300.86,868.45,320.83,850.37,323,848.44Z"/><path class="cls-1" d="M627.5,1137.08c-31.21,58.24-18.3,90.86-14.23,99.57,23.47,50.12,111.66,70.67,175.86,63.36,39.62-4.51,73.11-20,102.15,0,14.88,10.23,18.29,22.67,37.5,29.75,20.27,7.46,49.88,5.92,59.48-9.05,13.92-21.7-14.32-71.43-53-89.23-17.68-8.13-33.58-7.77-40.08-7.76-36.71,0-109.52-11.67-161.63-51.72-26.24-20.16-34.69-38.91-62.07-42.67C653.51,1126.85,637.82,1132.25,627.5,1137.08Z"/><polygon class="cls-1" points="418.3 389.57 534.59 389.57 534.59 263.85 508.4 290.04 479.07 260.71 443.44 296.33 413.06 265.95 413.06 389.57 418.3 389.57"/></svg>