<svg id="Layer_1" data-name="Layer 1" xmlns="http://www.w3.org/2000/svg" viewBox="0 0 1601.18 1601.18"><defs><style>.cls-1{fill:none;stroke:#288b92;stroke-linecap:round;stroke-linejoin:round;stroke-width:7.16px;}</style></defs><title>Artboard 5</title><circle class="cls-1" cx="1025.81" cy="751.88" r="75.08"/><path class="cls-1" d="M984.43,814.52s-4.06,22.31-17.88,27.25-22.72,0-22.72,0v42.47h82"/><path class="cls-1" d="M991.23,884.24s-1,104.71-16.8,137.29-58.28,67.17-58.28,67.17-31.61,0-12.84,16.8c0,0-59.27,85.94,1,151.13,0,0,2,23.71-26.67,23.71H849v60.25h176.81"/><path class="cls-1" d="M1067.19,814.52s4.06,22.31,17.88,27.25,22.72,0,22.72,0v42.47h-82"/><path class="cls-1" d="M1060.38,884.24s1,104.71,16.8,137.29,58.28,67.17,58.28,67.17,31.61,0,12.84,16.8c0,0,59.27,85.94-1,151.13,0,0-2,23.71,26.67,23.71h28.65v60.25H1025.82"/><line class="cls-1" x1="916.66" y1="1088.22" x2="1134.95" y2="1088.22"/><line class="cls-1" x1="903.32" y1="1105.5" x2="1148.29" y2="1105.5"/><circle class="cls-1" cx="1408.07" cy="751.88" r="75.08"/><path class="cls-1" d="M1366.69,814.52s-4.06,22.31-17.88,27.25-22.72,0-22.72,0v42.47h82"/><path class="cls-1" d="M1373.5,884.24s-1,104.71-16.8,137.29-58.28,67.17-58.28,67.17-31.61,0-12.84,16.8c0,0-59.27,85.94,1,151.13,0,0,2,23.71-26.67,23.71h-28.65v60.25h176.81"/><path class="cls-1" d="M1449.45,814.52s4.06,22.31,17.88,27.25,22.72,0,22.72,0v42.47h-82"/><path class="cls-1" d="M1442.64,884.24s1,104.71,16.8,137.29,58.28,67.17,58.28,67.17,31.61,0,12.84,16.8c0,0,59.27,85.94-1,151.13,0,0-2,23.71,26.67,23.71h28.65v60.25H1408.09"/><line class="cls-1" x1="1298.93" y1="1088.22" x2="1517.22" y2="1088.22"/><line class="cls-1" x1="1285.59" y1="1105.5" x2="1530.55" y2="1105.5"/><path class="cls-1" d="M425.25,449.62c1.22-29.68,1.83-44.52,1-52.35-3.56-33.4-21-37.35-16.8-56.3,5.49-24.44,38.57-35.6,41.48-36.55,29.49-9.54,38.79,8.61,67.17,2,36-8.4,37.88-41.52,71.12-45.43,20.68-2.44,45.48,7.38,51.37,23.71,8.2,22.75-22.78,51.22-32.6,60.25-39.14,36-63,21.61-106.67,52.35-47.6,33.5-66.18,83.56-75.08,79C423.78,475,424.37,470.79,425.25,449.62Z"/><path class="cls-1" d="M589.21,273.8a106.5,106.5,0,0,1-32.6,34.57c-6.21,4.12-27.49,18.23-55.32,17.78-15.32-.25-22.06-4.74-40.49-2s-23.33,9-24.7,10.86c-5.66,7.91-4.06,17.91-3,24.7,2.45,15.22,9.23,19.95,12.84,30.62,3.14,9.28,4.08,23.67-6.91,45.43"/><path class="cls-1" d="M611.93,284.67a141.09,141.09,0,0,1-27.66,34.57C576.08,326.69,565.85,336,549.7,342c-20.23,7.51-40,6.2-43.47,5.92-17.26-1.31-25.06-6.35-31.61-1-4.7,3.86-5.52,10.42-6.91,21.73a96.56,96.56,0,0,0,0,23.71"/><path class="cls-1" d="M430.19,490.13a109.91,109.91,0,0,0,41.48,37.53A106.79,106.79,0,0,0,527,539.51c11.46-.86,38.9-2.92,56.3-23.71,3.57-4.26,16.62-19.85,16.8-40.49.07-8.94-2.29-15.87,2-19.76,6.32-5.75,17.56,3.87,24.7-1,10.4-7.08,1.27-37.58-2-48.4a177.75,177.75,0,0,0-21.73-46.43"/><path class="cls-1" d="M406.48,450.61c-18-9.14-38.45-6.92-50.38,4.94-13.75,13.68-15.63,39.61-4.94,47.42,9.3,6.79,28.85.37,29.63-5.92.69-5.6-13-14.66-24.7-12.84-15.24,2.38-22.74,22.5-24.7,33.58-.43,2.41-5.15,32.09,16.8,47.42,9.26,6.47,26,13.73,36.55,5.92,5.52-4.09,10.37-13.07,6.91-20.75-3.56-7.91-14.27-10.7-21.73-7.9-6.22,2.33-9,8.11-9.87,9.87-5.57,11.83,0,27.25,7.9,36.55,13.21,15.55,33.86,15,42.47,14.81,9-.23,21.76-.55,28.65-9.87,4.76-6.46,7.78-18.67,1-24.7-5.81-5.16-16.86-4-21.73,2-4.15,5.13-2.54,12.28-2,14.81,3.16,14,16.76,21.67,25.68,26.67,11.21,6.28,23.45,13.16,38.52,9.87,2.89-.62,18.67-4,24.7-17.78,4.85-11.05,2.53-26.91-4.94-29.63-5.61-2.05-14.5,3.14-16.8,9.87-3.86,11.35,10.7,28.35,26.67,33.58,15.73,5.16,29.9-2,37.53-5.92,8.81-4.48,21.06-10.71,21.73-21.73.53-8.54-4.49-20-12.84-20.75-7-.66-15.3,6.33-14.81,12.84.53,6.9,10.67,10.47,11.85,10.86,13.14,4.44,28.73-3.68,37.53-13.82,7-8.12,15.7-24.41,8.89-33.58-5.23-7-19-9.12-22.72-4-2.64,3.66-.35,10.71,3,14.81,7.68,9.53,26.24,13.53,38.52,4,9.35-7.29,14.72-22.17,7.9-33.58C619.82,516,604.89,515.82,604,515.82"/><path class="cls-1" d="M370.92,621.5c-25.19,8.86-34.83,36.17-45.43,66.18-12.38,35-29.13,82.45-4,124.46,2.64,4.39,22.69,36.77,59.27,44.44,13,2.73,32.39-2.12,71.12-11.85,32-8,40.34-12.76,46.43-20.75,8.94-11.73,9-25.32,8.89-39.51-.12-13.11-2.08-37.26-19.76-75.08-16.5-35.29-26.66-57-51.37-73.09C427,630.38,398.46,611.81,370.92,621.5Z"/><path class="cls-1" d="M609,782.5c4.42-25.68,6.8-38.68,15.81-46.43,5.3-4.57,14.8-6.08,33.58-8.89,28.61-4.3,43.72-6.55,47.42,0,1.62,2.86.86,7.09-12.84,28.65-8.83,13.91-13.93,22.9-23.71,34.57C657,805,649.47,810.25,640.56,819.06c-32.28,31.94-22.37,51.11-48.4,75.08-3.47,3.2-29.34,26.33-65.19,25.68-29.07-.53-48.8-16.41-70.13-33.58-20.56-16.55-59.78-48.12-63.22-95.81-1.7-23.61,5-56.64,21.73-61.24s37.35,21,43.47,28.65c29.49,36.73,17.58,65.07,43.47,84,20.93,15.28,47.45,10.42,54.33,8.89,2.21-.49,35.73-8.49,47.42-35.56C607.65,806.7,604.84,806.52,609,782.5Z"/><path class="cls-1" d="M336.35,850.66a225.06,225.06,0,0,0-4,106.67c3,14.53,14.29,65.25,56.3,107.67,47,47.4,76.82,28.38,151.13,87.91,28.83,23.1,49,39.27,63.22,69.14,16.94,35.65,11.66,62,28.65,69.14,18,7.54,48.62-11.94,63.22-36.55,21.44-36.16,6.05-79.48-15.81-138.29-25.13-67.63-43.58-117.29-96.8-153.1-40.13-27-79.65-32.43-109.65-36.55-43.42-6-61.8,1.22-72.1,6.91-16.32,9-26.18,22-31.61,30.62"/><path class="cls-1" d="M722.56,727.18a464.48,464.48,0,0,0,71.12,1c18.15-1.17,32.9-3.27,40.49,5.92,5.22,6.32,6,16.7,2,23.71-6,10.35-21.54,11.32-32.6,11.85-20.87,1-54.39,2-99.76,1"/><path class="cls-1" d="M237.57,1241.81c-11.44,5.1-15.27,32.51-4,47.42,7.5,9.87,20,12.07,24.7,12.84,84.08,13.67,212.85-13.51,312.13,9.87,9.34,2.2,47.68,11.73,91.87,0,16.33-4.33,33.56-9.16,39.5-22.72,10.8-24.63-19.71-68.82-57.29-83-21.25-8-37.21-3.56-96.8,12.84-78.28,21.55-116,31.85-161,40.49-72.06,13.85-95.42,10.52-114.58-1C257.94,1250.08,247,1237.61,237.57,1241.81Z"/><path class="cls-1" d="M213.86,1228c-30.94-32.72-41.09-44.34-46.43-41.48-6.51,3.47,4.38,23-4.94,48.4-1.71,4.64-6.48,17.69-17.78,26.67-22.79,18.12-47.07-.16-90.87,12.84-15.78,4.68-38.61,14.77-37.53,21.73,1.36,8.81,39.3,1.77,111.62,10.86,38.8,4.88,60.26,11,88.9,0,8.85-3.39,32-12.28,34.57-28.65C253,1268.37,245.86,1261.81,213.86,1228Z"/><path class="cls-1" d="M636.63,862.51A350.49,350.49,0,0,1,743.3,855.6c33.57,3.06,55,5.29,70.13,20.75,14.92,15.27,19.09,38.79,11.85,95.81-13,102.56-41.75,146.68-56.3,242-3,19.95,11.42,55.25-6.91,72.1-7.09,6.52-19.14,11.16-26.67,6.91-10.46-5.9-8.61-26.91-7.9-38.52,4-64.87-10.08-121.78-14.81-138.29-14.44-50.26-34.09-43.54-40.49-85.94-1.49-9.86-9.13-67.83,29.63-105.7,17.42-17,47.86-33.54,76.05-25.68,13.37,3.74,30,14,29.63,24.7-.31,9.61-14.17,15.21-29.63,23.71-38,20.89-35.57,31.75-69.14,53.34-20.71,13.32-54,34.74-96.8,35.56-49.46,1-86.74-26.08-102.72-39.51"/><path class="cls-1" d="M644.53,714.34c1.22-9,1.24-20.82-5.92-28.65-11.56-12.61-30.13-2-44.44-12.84-16.21-12.27-19.23-46.2-4.94-68.15,13-19.95,36-23.52,56.3-26.67,10.59-1.65,35.4-5.16,59.27,7.9,9.92,5.42,27.3,17.87,24.7,26.67-1.87,6.35-14.19,10.91-22.72,6.91-5.47-2.57-9.72-8.81-9.87-14.81-.5-18.16,36.22-36.62,67.17-41.48,17.3-2.71,41.95-6.59,63.22,9.87,17.61,13.63,26.24,36.06,24.7,56.3-.42,5.4-1.53,19.95-11.85,31.61-6,6.79-13.56,10.82-26.67,17.78-12.39,6.59-14.28,6-17.78,8.89-7.31,6-13.16,20.08-4.94,56.3"/><path class="cls-1" d="M704.78,568.15l2-75.08"/><line class="cls-1" x1="684.04" y1="516.79" x2="723.56" y2="516.79"/><path class="cls-1" d="M821.34,1327.74c-10.14,2.6-48,11.21-74.09-7.9-8.86-6.51-11.75-12.84-12.84-15.81-4.7-12.73-1.61-31.79,12.84-40.5,14.13-8.51,31.91-2.78,40.49,5.92s5.65,17.93,13.82,23.71c8.46,6,21.08,2.77,30.62-1"/></svg>