<svg id="Layer_1" data-name="Layer 1" xmlns="http://www.w3.org/2000/svg" viewBox="0 0 1594.72 1594.72"><defs><style>.cls-1{fill:none;stroke:#288b92;stroke-linecap:round;stroke-linejoin:round;stroke-width:4.59px;}</style></defs><title>Artboard 1</title><path class="cls-1" d="M467.27,489.53a400.79,400.79,0,0,0-87.7,7.54c-50,10.2-43.38,35.84-42.44,50S402.2,734.73,402.2,734.73s-24.52,22.63,0,29.23v37.72s-10.37,17,13.2,17H439s-7.54,113.17-36.78,166-41.49,67.9-51.87,68.84,25.46,31.12,25.46,31.12-17.92,22.63-52.81,55.64-41.49,40.55-26.41,54.7,39.61,34.89,38.67,45.27,11.32,29.23-55.64,29.23v65.07H467.27"/><path class="cls-1" d="M467.55,489.47a401,401,0,0,1,87.7,7.6c50,10.23,43.36,35.86,42.41,50s-65.19,187.63-65.19,187.63,24.51,22.65,0,29.23l0,37.72s10.36,17-13.22,17l-23.58,0s7.47,113.17,36.67,166,41.45,67.93,51.83,68.88-25.48,31.11-25.48,31.11,17.9,22.65,52.77,55.67,41.47,40.58,26.37,54.72-39.63,34.87-38.69,45.24-11.33,29.23,55.63,29.27l0,65.07L467,1334.46"/><line class="cls-1" x1="402.2" y1="734.73" x2="532.34" y2="734.73"/><line class="cls-1" x1="402.2" y1="763.96" x2="532.34" y2="763.96"/><line class="cls-1" x1="438.98" y1="818.66" x2="495.56" y2="818.66"/><line class="cls-1" x1="372.96" y1="1084.61" x2="560.63" y2="1084.61"/><line class="cls-1" x1="335.24" y1="1240.22" x2="599.3" y2="1240.22"/><polyline class="cls-1" points="431.87 490.24 431.87 457.46 513.48 457.46 513.48 490.47"/><polyline class="cls-1" points="472.93 350.9 460.67 350.9 460.67 382.02 425.77 382.02 425.77 427.28 463.5 427.28 445.19 457.46"/><polyline class="cls-1" points="472.93 350.9 485.19 350.9 485.19 382.02 520.08 382.02 520.08 427.28 482.36 427.28 500.67 457.46"/><path class="cls-1" d="M941.63,260.36c-23.89-7.2-47.95-1.12-61.3,15.09-2.26,2.75-13.12,15.94-10.37,31.12,3,16.68,21.06,27.79,50.92,46.21,15,9.25,18.45,9.74,22.63,16,9.18,13.8,1.24,24.38,4.72,49,4,28.62,16.82,29.32,15.09,48.1-2.17,23.59-22.75,26.71-22.63,47.15.12,21.62,23.2,26.12,22.63,46.21-.63,22.23-29.18,27.17-29.23,48.1-.06,21.35,29.62,26.41,30.18,48.1.6,23.23-33.09,31.5-31.12,52.81,1.76,19.05,29.41,20.4,33,41.49,3.71,21.77-24,30.58-22.63,55.64,1.35,24.78,29.18,29.87,28.29,51.87-.93,23.17-32.3,29.3-31.12,50,1.14,20,31.08,25.37,30.18,43.38-.86,17.18-28.58,21.68-28.29,37.72s28.35,20.72,28.29,35.84c-.07,16.28-32.64,21-34.89,38.67-2,15.51,29.38,18.16,34,38.67,5.17,23.16-29.34,35.49-27.35,64.13,1.69,24.31,27.55,29.75,25.46,50.92-2.11,21.4-29.55,26.29-28.29,43.38,1.32,17.87,32,21.48,34.89,40.55,2.06,13.57-11.16,27-23.58,36.78"/><path class="cls-1" d="M941.63,260.36c10,3.34,34.53,10.91,54.7,14.15,34.48,5.54,42.52.51,57.53,8.49,22.42,11.92,34.35,39.08,36.78,60.36,3,26.52-10.32,29.61-9.43,61.3.94,33.56,16.11,37.22,12.26,63.18-3.91,26.32-20.57,29.88-18.86,51.87,1.63,20.86,17.12,24.07,16,42.44-1.23,20.69-21.35,24.5-20.75,42.44.62,18.42,22,20.51,25.46,40.55,3.89,22.78-22.08,30.14-21.69,55.64.43,27.85,31.65,35.47,29.23,61.3-1.75,18.73-18.64,19.84-20.75,39.61-2.55,23.9,21.35,29.62,22.63,55.64,1.36,27.64-24.82,37.32-23.58,65.07.93,20.56,21.8,21.89,22.63,41.49.86,20.07-18.23,24-18.86,45.27-.68,22.76,20.92,27,20.75,50-.17,22.7-21.22,29.12-17.92,49,2.6,15.64,16.21,15.5,18.86,31.12,3.63,21.42-20.33,31.47-16,50,4.11,17.74,28.8,20.1,28.29,33-.53,13.35-27.19,16.89-27.35,29.23-.17,13,29.28,16.18,34.89,34.89,4.06,13.54-6.33,28.59-15.09,38.67"/><path class="cls-1" d="M1022.74,369.76c-3,30.44,2,52.28,7.54,67,5.14,13.72,10.62,21,9.43,34-1.85,20.23-17.1,22.63-19.8,40.55-3.62,24,22,31.11,20.75,56.58-1.22,25-26.63,31.37-23.58,52.81,2.42,17,19.11,18.34,20.75,35.84s-14.72,20.93-17,41.49c-2.71,24.6,19.42,31.59,17,56.58-2,20.63-17.66,21.77-18.86,41.49-1.45,23.66,20.7,28.14,22.63,53.75,2.07,27.43-22.58,32.15-20.75,61.3,1.48,23.72,18.52,32,13.2,52.81-3.35,13.1-11.21,14.12-11.32,25.46-.16,17.38,18.23,22.56,17,37.72-1.07,12.93-14.82,13.91-17,27.35-2.64,16.48,17,21.54,19.8,40.55,4,27.41-33.16,41.19-28.29,67,3.25,17.19,20.9,16.77,23.58,34.89,3.28,22.2-21.55,33.91-16,50.92,4.6,14.15,23.79,12.22,31.12,27.35,6.88,14.18-1.84,32.68-10.37,46.21"/><path class="cls-1" d="M996.34,319.77c-13.41-16.68-37.7-41-69.79-44.32-6.23-.64-19.24-2-23.58,4.72-5.3,8.16,3.24,26.78,17,35.84,16.82,11.1,29.41-.07,47.15,11.32,9.76,6.26,20.29,18.85,19.8,32.06S975,376.83,974.63,389.57c-.37,11.9,9.12,21.86,17,28.29"/><path class="cls-1" d="M885.05,338.64c-7,16.28-12.67,30.37-17,41.49-9,23.37-12.5,34.54-7.54,39.61,4.15,4.24,10.1,0,16,4.72,6.6,5.24,3.27,13.64,6.6,28.29,1,4.35,5.18,22.75,19.8,34,3.92,3,12.73,8.66,27.35,9.43"/><path class="cls-1" d="M928.43,519.7c-2.58-3.61-14.65-19.67-36.78-23.58-6.2-1.09-24.3-5.28-32.06,3.77-9.06,10.56-.2,33.94,12.26,47.15C891.59,568,928.25,571.8,935,561.19c4.24-6.63-1.94-20.83-8.49-21.69-10-1.3-12.17,29.44-40.55,59.41-19.07,20.14-27.66,16.38-38.67,34-16.6,26.49-10.57,56.57-9.43,62.24,1.61,8,8.8,43.9,34.89,54.7,19,7.86,27.86-5.94,54.7-1.89,22.37,3.37,45.61,17.4,58.47,38.67,16.57,27.38,18.64,71.24-2.83,85.82-23,15.62-62.68-9.42-71.67-15.09-27-17-42.75-41.21-67-78.27-16.58-25.4-17.19-33.25-31.12-45.27-4.17-3.59-9.77-7.78-11.32-15.09-2.45-11.63,6.52-25.8,14.15-29.23,12.3-5.54,38.8,8.83,100,90.53"/><path class="cls-1" d="M809.61,676.26c-2.93-3.7-15.9-19.07-37.72-19.8-18.07-.61-30.27,9.21-34,12.26-8,6.68-18.77,19.74-15.09,26.41,2,3.57,7.36,4,17.92,4.72,20.51,1.38,24.14-3.46,31.12,0,12,6,6.86,23.17,18.86,29.23,8.54,4.32,21.21.69,27.35-6.6C828.91,709.63,818.12,687,809.61,676.26Z"/><path class="cls-1" d="M768.11,639.47c2-1.12,15.83-8.75,32.06-2.83,17.81,6.49,23.07,23.68,23.58,25.46"/><path class="cls-1" d="M1111.39,880c26.25,25.53,70.46,75.61,96.19,151.83,20.69,61.29,19.8,121.65,19.8,121.65,1.37,63.77-11.76,110.16,13.2,127.31,9.62,6.62,18.85,4.71,48.1,19.8,15.42,8,27.16,14.14,26.41,19.8-.73,5.45-13,10.12-52.81,13.2a692.79,692.79,0,0,1-124.48-1.89"/><circle class="cls-1" cx="751.14" cy="739.44" r="25.46"/><rect class="cls-1" x="687.01" y="776.22" width="129.2" height="20.75"/><polyline class="cls-1" points="721.9 808.29 721.9 1272.28 755.85 1321.32 781.32 1272.28 781.32 808.29"/><line class="cls-1" x1="751.14" y1="845.07" x2="751.14" y2="730.96"/><line class="cls-1" x1="751.14" y1="1115.73" x2="751.14" y2="1250.59"/><line class="cls-1" x1="751.14" y1="1074.24" x2="751.14" y2="1026.14"/><path class="cls-1" d="M860.53,848.84a97.95,97.95,0,0,0-68.84,66"/><path class="cls-1" d="M700.21,1203.44c-8.48,12.54-21.45,36.25-19.8,66,.73,13.16,1.88,34,17,42.44,12.17,6.81,26.59,1.78,31.12,0"/><path class="cls-1" d="M802.06,1307.17a358.32,358.32,0,0,1,132,9.43"/></svg>