<svg id="Layer_1" data-name="Layer 1" xmlns="http://www.w3.org/2000/svg" viewBox="0 0 1599.89 1599.89"><defs><style>.cls-1{fill:none;stroke:#288b92;stroke-linecap:round;stroke-linejoin:round;stroke-width:4.27px;}</style></defs><title>Artboard 2</title><path class="cls-1" d="M961.36,1309.1H771v-61.69c59.93,0,47.59-34.37,47.59-34.37l-28.2-27.32s15-11.45,34.37-27.32,25.56-44.06,25.56-44.06c-28.2-5.29,0-22,0-22l5.29-14.1c36.13-104,52.88-282,52.88-282s-1.77-25.56-38.78-25.56-36.13-35.25-36.13-35.25V647.25h46.71v47.59h33.49V647.25h37V694h10.57"/><path class="cls-1" d="M961.36,1309.1h190.36v-61.69c-59.93,0-47.59-34.37-47.59-34.37l28.2-27.32s-15-11.45-34.37-27.32-25.56-44.06-25.56-44.06c28.2-5.29,0-22,0-22l-5.29-14.1c-36.12-104-52.87-282-52.87-282s1.77-25.56,38.78-25.56,36.13-35.25,36.13-35.25V647.25h-46.71v47.59h-33.49V647.25h-37V694H961.36"/><line class="cls-1" x1="850.31" y1="1092.3" x2="1072.4" y2="1092.3"/><line class="cls-1" x1="850.31" y1="1114.33" x2="1072.4" y2="1114.33"/><line class="cls-1" x1="818.59" y1="1213.04" x2="1104.13" y2="1213.04"/><circle class="cls-1" cx="604.43" cy="1250.93" r="89.01"/><line class="cls-1" x1="587.69" y1="1161.93" x2="587.69" y2="809.41"/><line class="cls-1" x1="617.65" y1="1161.93" x2="617.65" y2="804.12"/><path class="cls-1" d="M682.87,427.81c-1.28,6.09-7.51,38.74,13.22,68.74,16.71,24.18,40.65,31.76,49.35,34.37,6.56,2,46,13,79.32-10.57,18.08-12.81,25.84-29.7,29.08-37,20-45-.84-90.39-5.29-99.58"/><path class="cls-1" d="M756,269.17c-16.39,12.74-18.3,34.31-18.51,37-1.92,25.89,16.39,45,26.44,55.52,17.64,18.43,38.91,28.92,69.62,44.06,25.28,12.47,36.62,15.5,40.54,27.32,5.64,17-11.24,30.63-4.41,41.42,6.65,10.5,32.26,12.79,45.83,1.77,28.78-23.4-2.8-101.83-7.93-114.57-10.52-26.11-23.2-57.61-56.4-79.32C829.82,268.42,783.54,247.78,756,269.17Z"/><path class="cls-1" d="M761.31,269.19c-13-10.77-43.3,9.3-57.28,18.55a180.71,180.71,0,0,0-47.59,46.38c-5,7.08-26.41,38.69-32.61,85.34-2.23,16.77-6,37,5.4,51.12,9,11.23,28.8,15.36,37.75,2.31,7.91-11.53,3.46-31.91,4.26-45.13,2.12-35,23-27.82,46-40.77,33.93-19.07,43.5-61.92,45.83-72.35C766.25,300.41,771.35,277.53,761.31,269.19Z"/><path class="cls-1" d="M807.13,279.75a112.79,112.79,0,0,1,62.57,53.76"/><path class="cls-1" d="M789.51,318.53A176.71,176.71,0,0,1,828.29,352c3.59,4.16,6.81,8.3,9.7,12.34"/><path class="cls-1" d="M703.14,477.16c-13.22-7-38.3,4.44-46.71,22.92-7.09,15.58-.27,31.62,3.52,40.54,7.8,18.32,21,32,77.55,69.62,26.79,17.81,34,32.87,46.71,30C794,638,795.93,629,808,612.89c22-29.41,34.91-25.38,58.16-52.88,13.77-16.27,34.72-41,26.44-60.81-7.44-17.75-37.18-28.39-54.64-19.39-18,9.3-10.71,33.27-36.13,74-10.64,17.05-19.37,30.65-32.61,31.72-23,1.87-42.78-35.45-44.94-39.66C706.11,510.7,718.16,485.13,703.14,477.16Z"/><path class="cls-1" d="M636.16,535.33c-39.27,4.35-67.18,7.45-100.47,26.44-17.1,9.76-59.85,34.14-78.43,83.72-3.79,10.11-18.41,49.11,0,79.32,1.79,2.94,12.69,20.82,26.44,20.27,10.14-.41,11.68-10.42,28.2-22,4.77-3.35,27.12-19,48.47-13.22,11.1,3,10.89,8.86,19.39,10.57,20.41,4.11,42.45-25.37,59-47.59,21.77-29.14,31.08-53.57,39.66-76.67,11-29.52,16.39-44.72,8.81-54.64C683.57,536.64,675.19,531,636.16,535.33Z"/><path class="cls-1" d="M639.69,808.52c6.49,7,1.41,16.79,12.34,43.19,6.12,14.77,9.35,15.68,10.57,15.86,9.65,1.42,22.77-23.29,27.32-44.94,2.2-10.47,8.27-39.28-7-53.76-9.53-9-17.93-3.57-44.06-10.57-7.81-2.09-29.86-8.2-48.47-22.92C564.68,715.1,571.1,698.67,550.68,686c-21.8-13.5-58.41-12.94-72.27,6.17-15,20.66,3.31,53.81,10.57,67,3.85,7,28.89,42.12,71.39,49.35C599.58,815.2,626.92,794.66,639.69,808.52Z"/><path class="cls-1" d="M916.42,528.27c30.78-23.91,86.26,4.35,112.81,28.2,1.35,1.22,22.48,20.67,30,50.23,2.88,11.41,1.75,16.47-.88,19.39-5.67,6.26-18.28,2.56-30.85,0a241.34,241.34,0,0,0-59.93-4.41c-33.3,2.15-40.29,16.47-53.76,9.7-21.39-10.77-17.85-54-17.63-56.4C897,565.59,899.22,541.62,916.42,528.27Z"/><path class="cls-1" d="M542.75,823.51c-2.6,3.27-27.07,35.11-15.86,75.79,9.92,36,40.22,51.45,44.94,53.76"/><path class="cls-1" d="M644.1,966.27c15.11,9.67,72.74,44,145.41,30a190.4,190.4,0,0,0,74.91-32.61"/><path class="cls-1" d="M646.74,1019.15c-26.55,64.94-23.52,161.32,2.64,200.71a71.41,71.41,0,0,0,13.22,14.76c15.76,13.65,45,26.65,61.69,5.9,15.6-19.41,4.51-48.83,22.92-121,8.64-33.91,12.87-34.39,14.1-53.13,2.86-43.58-15.89-103.64-46.71-113.64C678.65,941.07,652.16,1005.89,646.74,1019.15Z"/></svg>