<svg id="Layer_1" data-name="Layer 1" xmlns="http://www.w3.org/2000/svg" viewBox="0 0 1596.99 1596.99"><defs><style>.cls-1{fill:none;stroke:#288b92;stroke-linecap:round;stroke-linejoin:round;stroke-width:4.48px;}</style></defs><title>Artboard 6</title><path class="cls-1" d="M399.23,690.15s-12,22.42-29.89,17.19-20.92-17.19-20.92-17.19-23.91,33.63-47.08,0l49.32,162.91s-14.2,17.19,0,17.19c0,0-16.44,14.2,0,16.44,0,0,51.56,104.62-49.32,243.62l12,13.45s-16.44,14.2,0,17.94l-49.32,68,27.65,39.61s8.22,14.95-41.85,14.95v51.56H399.23"/><path class="cls-1" d="M399.61,690.52s12,22.42,29.89,17.19,20.92-17.19,20.92-17.19,23.91,33.63,47.08,0L448.18,853.43s14.2,17.19,0,17.19c0,0,16.44,14.2,0,16.44,0,0-51.56,104.62,49.32,243.62l-12,13.45s16.44,14.2,0,17.94l49.32,68-27.65,39.61s-8.22,14.95,41.85,14.95v51.56H399.61"/><line class="cls-1" x1="350.28" y1="852.68" x2="448.18" y2="852.68"/><line class="cls-1" x1="350.28" y1="869.87" x2="448.18" y2="869.87"/><line class="cls-1" x1="350.28" y1="886.31" x2="448.18" y2="886.31"/><line class="cls-1" x1="312.92" y1="1143.38" x2="485.55" y2="1143.38"/><line class="cls-1" x1="312.92" y1="1161.32" x2="485.55" y2="1161.32"/><line class="cls-1" x1="263.6" y1="1229.32" x2="534.87" y2="1229.32"/><circle class="cls-1" cx="399.61" cy="650.91" r="18.68"/><path class="cls-1" d="M317,703.84c17.24-21.16,41.15-37.6,67.73-41.74"/><path class="cls-1" d="M483.35,703.09c-17.24-21.16-41.15-37.6-67.73-41.74"/><path class="cls-1" d="M505,840s90.42,73.24,163.66,0c0,0,88.18,66.51,154.69,0v267.53S839,1251,664.15,1323.48c0,0-159.18-74-159.18-217.46Z"/><path class="cls-1" d="M751.59,1333.95c12.27-.22,31-.41,53.81,0,85.16,1.53,116.89,9.42,120.32,0,3.86-10.59-30.57-36-64.27-47.08-39.51-13-60.88,8.48-74.73-4.48-25.77-24.11,28-104.29,4.48-123.3-10-8.08-30.2-2.09-41.85,6.73C717.88,1189.63,719,1256.75,751.59,1333.95Z"/><path class="cls-1" d="M661.16,408.79c-14.74-40-28.94-42-29.14-59.78-.28-23.52,24.38-41.18,44.09-55.3,25.77-18.46,83.57-49.64,108.36-27.65,11.73,10.4,15.48,32.16,6.73,47.83-12.73,22.79-47.24,24.21-50.07,18.68-1.64-3.21,6.17-11.12,13.45-14.95,20.18-10.6,54.53.62,58.29,21.67,2.6,14.57-9.92,31.27-25.41,36.62-18,6.2-39.48-3-39.61-9.71-.13-7.13,23.94-18.85,42.6-11.21,18.37,7.52,29.25,32.87,20.92,47.83-6.88,12.37-24.86,14-29.14,14.2-22.75,1.26-27.34-15.38-51.56-15.69-4.54-.06-24.41.26-38.86,13.45-9.88,9-11.68,19-17.19,18.68C668.76,433.1,665.85,421.52,661.16,408.79Z"/><path class="cls-1" d="M662.66,461.1c13,18,5,52.47-11.21,60.53-6.13,3-9.62.43-26.16-2.24-14.54-2.35-48.63-7.84-81.46,2.24-11.58,3.56-14.24,6.37-19.43,4.48-15.67-5.68-18.74-41.21-12.7-67.26,2.19-9.45,8.71-37.57,26.16-41.85,12.21-3,19,8.31,39.61,19.43C620.66,459.77,648.12,441,662.66,461.1Z"/><path class="cls-1" d="M537.11,442.41a107.1,107.1,0,0,0-3.74,58.29"/><path class="cls-1" d="M558,447.65a86.22,86.22,0,0,0-6,32.13,85.27,85.27,0,0,0,2.24,18.68"/><path class="cls-1" d="M583.44,457.36a54.78,54.78,0,0,0-5.23,38.11"/><path class="cls-1" d="M594.65,426.72c4.31-3.74,39.22-33,80-22.42,27.52,7.15,43.17,28.71,45.59,32.13,20.69,29.35,5.72,51.49,28.4,74.73,12.32,12.62,26.06,15.66,26.9,27.65.59,8.4-5.55,15.46-12,21.67-37.31,36.12-80,44.09-80,44.09-26.33,4.92-57.79,10.8-85.19-9-29-20.91-33.53-56.15-34.38-64.27"/><path class="cls-1" d="M679.84,585.15c-11.2,26.46,31.45,62.18,36.62,66.51,23.33,19.54,47.43,25.26,68,29.89,41.91,9.44,113.48,14.38,124.05-11.21,4.25-10.29-1.41-25.39-10.46-30.64-9.7-5.63-18.68,2.74-34.38,4.48-26.69,3-49.74-15.73-75.48-36.62-31.41-25.49-31.39-37.78-50.82-42.6C715.86,559.64,687.24,567.66,679.84,585.15Z"/><path class="cls-1" d="M697,884.07c-6.63-8.24,6.18-33.57,24.66-47.83,19.23-14.83,54.24-25.11,68-9,12,14.08,5.16,45.06-11.21,56-11.06,7.42-17.25-.48-59.78,2.24C705.08,886.44,699.89,887.62,697,884.07Z"/><path class="cls-1" d="M763.54,831A94.46,94.46,0,0,1,789,793.65c33.4-29.56,82.28-27.65,83.7-22.42,1,3.54-18.84,12.32-32.88,16.44-16.43,4.84-46.6,13.71-71.74-3-24.37-16.18-36.69-51.52-25.41-81.46,14.2-37.69,57.28-44.2,62-44.84,47.25-6.34,81.93,34,91.92,45.59,32.34,37.6,33.28,80.74,33.63,97.15.59,27.58,1.29,60-22.42,78.47-27.47,21.36-66.91,7.73-71.74,6"/><path class="cls-1" d="M895.07,906.49c7.26,69.51,16.53,149.81,28.4,238.39,2.06,15.36,5.25,37.1,21.67,55.3s42.9,29.41,133.77,28.4c107.2-1.2,133.39-17.53,192.18,0,31.18,9.3,77.58,29.92,76.11,50.07s-49.64,32.19-55.3,33.63c-32.35,8.18-59.07,3.79-69.5,2.24-101.84-15.13-134.13,20.27-235.4,0a387.77,387.77,0,0,1-67.26-20.18c-27.55-11-45.56-18.24-58.29-30.64-18.12-17.64-14.22-37.54-14.2-132.27,0-74.15,0-111.23-.75-118.07-4.57-40.38-12.77-70.76.75-79.21,7.2-4.5,19.06-1.84,25.41,4.48,11.69,11.63,4.88,35.71,2.24,46.33-18.08,72.85,1.59,151.39,6.73,171.88,9.61,38.37,18.63,74.35,50.07,98.64,38.58,29.82,89.19,25.23,136.76,20.92,62.47-5.66,85.65-24.37,145-18.68a262.22,262.22,0,0,1,59,12.7"/><path class="cls-1" d="M506.47,671.09A145.94,145.94,0,0,0,567,653.9c17.53-9.56,26.92-11.7,27.65-27.65s-9.51-30.52-25.41-32.13C557,592.87,547.62,593,524.41,612.8c-19.53,16.63-21.9,22.35-33.63,27.65-16.05,7.26-32.34,5.9-43.34,3.74"/><path class="cls-1" d="M534.87,684.54c-7.38,8-25.46,29.82-29.14,62.77-1.11,9.92-3.38,33.07,9.71,57.54a92.47,92.47,0,0,0,29.89,32.88"/></svg>